HIERARCHY
ROOT Hips
{
    OFFSET 0.000000 0.000000 0.000000
    CHANNELS 6 Xposition Yposition Zposition Zrotation Xrotation Yrotation
    JOINT Spine
    {
        OFFSET -0.000000 0.072775 0.000000
        CHANNELS 3 Zrotation Xrotation Yrotation
        JOINT Spine1
        {
            OFFSET -0.000000 0.195886 0.000000
            CHANNELS 3 Zrotation Xrotation Yrotation
            JOINT Neck
            {
                OFFSET -0.000000 0.195082 0.017735
                CHANNELS 3 Zrotation Xrotation Yrotation
                JOINT Head
                {
                    OFFSET -0.000000 0.124250 -0.017750
                    CHANNELS 3 Zrotation Xrotation Yrotation
                    End Site
                    {
                        OFFSET -0.000000 0.177500 0.000000
                    }
                }
            }
            JOINT LeftShoulder
            {
                OFFSET 0.035772 0.183979 -0.000787
                CHANNELS 3 Zrotation Xrotation Yrotation
                JOINT LeftArm
                {
                    OFFSET 0.089258 0.000000 0.000000
                    CHANNELS 3 Zrotation Xrotation Yrotation
                    JOINT LeftForeArm
                    {
                        OFFSET 0.285064 0.000000 0.000000
                        CHANNELS 3 Zrotation Xrotation Yrotation
                        JOINT LeftHand
                        {
                            OFFSET 0.227012 0.000000 0.000000
                            CHANNELS 3 Zrotation Xrotation Yrotation
                            JOINT LeftHandThumb1
                            {
                                OFFSET 0.022188 -0.013313 0.044375
                                CHANNELS 3 Zrotation Xrotation Yrotation
                                JOINT LeftHandThumb2
                                {
                                    OFFSET 0.026625 0.000000 0.000000
                                    CHANNELS 3 Zrotation Xrotation Yrotation
                                    JOINT LeftHandThumb3
                                    {
                                        OFFSET 0.026625 0.000000 0.000000
                                        CHANNELS 3 Zrotation Xrotation Yrotation
                                        End Site
                                        {
                                            OFFSET 0.023630 0.000000 0.000000
                                        }
                                    }
                                }
                            }
                            JOINT LeftHandIndex1
                            {
                                OFFSET 0.079875 0.000000 0.031063
                                CHANNELS 3 Zrotation Xrotation Yrotation
                                JOINT LeftHandIndex2
                                {
                                    OFFSET 0.044375 0.000000 0.000000
                                    CHANNELS 3 Zrotation Xrotation Yrotation
                                    JOINT LeftHandIndex3
                                    {
                                        OFFSET 0.022188 0.000000 0.000000
                                        CHANNELS 3 Zrotation Xrotation Yrotation
                                        End Site
                                        {
                                            OFFSET 0.019691 0.000000 0.000000
                                        }
                                    }
                                }
                            }
                            JOINT LeftHandMiddle1
                            {
                                OFFSET 0.079875 0.000000 0.010295
                                CHANNELS 3 Zrotation Xrotation Yrotation
                                JOINT LeftHandMiddle2
                                {
                                    OFFSET 0.048813 0.000000 0.000000
                                    CHANNELS 3 Zrotation Xrotation Yrotation
                                    JOINT LeftHandMiddle3
                                    {
                                        OFFSET 0.026625 0.000000 0.000000
                                        CHANNELS 3 Zrotation Xrotation Yrotation
                                        End Site
                                        {
                                            OFFSET 0.023630 0.000000 0.000000
                                        }
                                    }
                                }
                            }
                            JOINT LeftHandRing1
                            {
                                OFFSET 0.075438 0.000000 -0.010295
                                CHANNELS 3 Zrotation Xrotation Yrotation
                                JOINT LeftHandRing2
                                {
                                    OFFSET 0.044375 0.000000 0.000000
                                    CHANNELS 3 Zrotation Xrotation Yrotation
                                    JOINT LeftHandRing3
                                    {
                                        OFFSET 0.022188 0.000000 0.000000
                                        CHANNELS 3 Zrotation Xrotation Yrotation
                                        End Site
                                        {
                                            OFFSET 0.019691 0.000000 0.000000
                                        }
                                    }
                                }
                            }
                            JOINT LeftHandPinky1
                            {
                                OFFSET 0.071000 0.000000 -0.031063
                                CHANNELS 3 Zrotation Xrotation Yrotation
                                JOINT LeftHandPinky2
                                {
                                    OFFSET 0.035500 0.000000 0.000000
                                    CHANNELS 3 Zrotation Xrotation Yrotation
                                    JOINT LeftHandPinky3
                                    {
                                        OFFSET 0.017750 0.000000 0.000000
                                        CHANNELS 3 Zrotation Xrotation Yrotation
                                        End Site
                                        {
                                            OFFSET 0.015753 0.000000 0.000000
                                        }
                                    }
                                }
                            }
                        }
                    }
                }
            }
            JOINT RightShoulder
            {
                OFFSET -0.035163 0.183979 -0.000787
                CHANNELS 3 Zrotation Xrotation Yrotation
                JOINT RightArm
                {
                    OFFSET -0.089258 0.000000 0.000000
                    CHANNELS 3 Zrotation Xrotation Yrotation
                    JOINT RightForeArm
                    {
                        OFFSET -0.285064 0.000000 0.000000
                        CHANNELS 3 Zrotation Xrotation Yrotation
                        JOINT RightHand
                        {
                            OFFSET -0.227012 0.000000 0.000000
                            CHANNELS 3 Zrotation Xrotation Yrotation
                            JOINT RightHandThumb1
                            {
                                OFFSET -0.022188 -0.013313 0.044375
                                CHANNELS 3 Zrotation Xrotation Yrotation
                                JOINT RightHandThumb2
                                {
                                    OFFSET -0.026625 0.000000 0.000000
                                    CHANNELS 3 Zrotation Xrotation Yrotation
                                    JOINT RightHandThumb3
                                    {
                                        OFFSET -0.026625 0.000000 0.000000
                                        CHANNELS 3 Zrotation Xrotation Yrotation
                                        End Site
                                        {
                                            OFFSET -0.023630 0.000000 0.000000
                                        }
                                    }
                                }
                            }
                            JOINT RightHandIndex1
                            {
                                OFFSET -0.079875 0.000000 0.031063
                                CHANNELS 3 Zrotation Xrotation Yrotation
                                JOINT RightHandIndex2
                                {
                                    OFFSET -0.044375 0.000000 0.000000
                                    CHANNELS 3 Zrotation Xrotation Yrotation
                                    JOINT RightHandIndex3
                                    {
                                        OFFSET -0.022188 0.000000 0.000000
                                        CHANNELS 3 Zrotation Xrotation Yrotation
                                        End Site
                                        {
                                            OFFSET -0.019691 0.000000 0.000000
                                        }
                                    }
                                }
                            }
                            JOINT RightHandMiddle1
                            {
                                OFFSET -0.079875 0.000000 0.010295
                                CHANNELS 3 Zrotation Xrotation Yrotation
                                JOINT RightHandMiddle2
                                {
                                    OFFSET -0.048813 0.000000 0.000000
                                    CHANNELS 3 Zrotation Xrotation Yrotation
                                    JOINT RightHandMiddle3
                                    {
                                        OFFSET -0.026625 0.000000 0.000000
                                        CHANNELS 3 Zrotation Xrotation Yrotation
                                        End Site
                                        {
                                            OFFSET -0.023630 0.000000 0.000000
                                        }
                                    }
                                }
                            }
                            JOINT RightHandRing1
                            {
                                OFFSET -0.075438 0.000000 -0.010295
                                CHANNELS 3 Zrotation Xrotation Yrotation
                                JOINT RightHandRing2
                                {
                                    OFFSET -0.044375 0.000000 0.000000
                                    CHANNELS 3 Zrotation Xrotation Yrotation
                                    JOINT RightHandRing3
                                    {
                                        OFFSET -0.022188 0.000000 0.000000
                                        CHANNELS 3 Zrotation Xrotation Yrotation
                                        End Site
                                        {
                                            OFFSET -0.019691 0.000000 0.000000
                                        }
                                    }
                                }
                            }
                            JOINT RightHandPinky1
                            {
                                OFFSET -0.071000 0.000000 -0.031063
                                CHANNELS 3 Zrotation Xrotation Yrotation
                                JOINT RightHandPinky2
                                {
                                    OFFSET -0.035500 0.000000 0.000000
                                    CHANNELS 3 Zrotation Xrotation Yrotation
                                    JOINT RightHandPinky3
                                    {
                                        OFFSET -0.017750 0.000000 0.000000
                                        CHANNELS 3 Zrotation Xrotation Yrotation
                                        End Site
                                        {
                                            OFFSET -0.015753 0.000000 0.000000
                                        }
                                    }
                                }
                            }
                        }
                    }
                }
            }
        }
    }
    JOINT LeftUpLeg
    {
        OFFSET 0.088750 0.000000 0.000000
        CHANNELS 3 Zrotation Xrotation Yrotation
        JOINT LeftLeg
        {
            OFFSET -0.000000 -0.379026 0.000000
            CHANNELS 3 Zrotation Xrotation Yrotation
            JOINT LeftFoot
            {
                OFFSET -0.000000 -0.385721 0.000000
                CHANNELS 3 Zrotation Xrotation Yrotation
                JOINT LeftToeBase
                {
                    OFFSET -0.000000 -0.057688 0.133125
                    CHANNELS 3 Zrotation Xrotation Yrotation
                    End Site
                    {
                        OFFSET -0.000000 0.000000 0.035500
                    }
                }
            }
        }
    }
    JOINT RightUpLeg
    {
        OFFSET -0.088750 0.000000 0.000000
        CHANNELS 3 Zrotation Xrotation Yrotation
        JOINT RightLeg
        {
            OFFSET -0.000000 -0.379026 0.000000
            CHANNELS 3 Zrotation Xrotation Yrotation
            JOINT RightFoot
            {
                OFFSET -0.000000 -0.385721 0.000000
                CHANNELS 3 Zrotation Xrotation Yrotation
                JOINT RightToeBase
                {
                    OFFSET -0.000000 -0.057688 0.133125
                    CHANNELS 3 Zrotation Xrotation Yrotation
                    End Site
                    {
                        OFFSET -0.000000 0.000000 0.035500
                    }
                }
            }
        }
    }
}
MOTION
Frames:    6
Frame Time:    0.040000
0.581928    0.775235    1.182897    -4.768346    -1.783192    52.772308    6.555047    -0.171163    10.680838    0.945537    8.111133    3.489314    5.562479    11.630784    16.725399    -26.020456    -8.011008    11.732021    5.131239    1.981244    -7.97761    -25.432411    15.857503    -33.815361    0.0    -48.524155    -10.0    -14.740692    -7.774597    0.0    -5.526456    -11.22793    -23.028387    0.0    0.0    0.0    0.0    0.0    0.0    -89.999992    0.0    0.0    -110.0    0.0    0.0    -80.0    0.0    0.0    -45.450001    0.0    0.0    -73.700012    0.0    0.0    -53.599995    0.0    0.0    -0.899995    0.0    0.0    -37.39999    0.0    0.0    -27.200001    0.0    0.0    45.000004    0.0    -0.0    0.0    0.0    0.0    0.0    0.0    0.0    -9.136218    1.914856    11.114909    1.213392    41.060635    90.0    0.0    -19.086691    58.648609    -70.0    20.0    0.0    -0.988219    20.102436    -34.892952    0.0    0.0    -24.066879    0.0    0.0    -48.133766    32.139278    0.0    -0.0    64.278557    0.0    -0.0    32.139278    0.0    -0.0    34.460773    0.0    -0.0    68.921539    0.0    -0.0    34.460773    0.0    -0.0    36.782265    0.0    -0.0    73.564522    0.0    -0.0    36.782265    0.0    -0.0    39.174107    0.0    -0.0    78.348206    0.0    -0.0    39.174107    0.0    -0.0    29.508848    -23.915871    0.669128    -0.2    23.471876    1.0    -5.0    3.530909    0.0    4.535015    -6.484687    -5.752066    -16.991034    11.602765    -8.979268    0.2    6.759792    -1.0    5.0    -12.159785    0.0    1.154576    -7.470636    2.1897
0.582058    0.775268    1.183013    -4.766327    -1.78321    52.729176    6.569051    -0.253914    10.677959    0.971651    8.22537    3.48397    5.465949    11.353806    16.827538    -25.832434    -7.697958    11.940116    5.138721    1.957706    -7.99861    -25.476503    15.708121    -33.856354    0.0    -48.468163    -10.0    -14.691742    -7.699924    0.0    -5.383586    -11.282398    -22.792671    0.0    0.0    0.0    0.0    0.0    0.0    -89.999992    0.0    0.0    -110.0    0.0    0.0    -80.0    0.0    0.0    -45.450001    0.0    0.0    -73.700012    0.0    0.0    -53.599995    0.0    0.0    -0.899995    0.0    0.0    -37.39999    0.0    0.0    -27.200001    0.0    0.0    45.000004    0.0    -0.0    0.0    0.0    0.0    0.0    0.0    0.0    -9.127254    1.931829    11.071389    2.209591    41.110065    89.996681    0.0    -19.102942    58.775074    -70.0    20.0    0.0    0.422266    23.033194    -40.318447    0.0    0.0    -27.449718    0.0    0.0    -54.899437    30.071262    0.0    -0.0    60.142517    0.0    -0.0    30.071262    0.0    -0.0    25.704559    0.0    -0.0    51.409119    0.0    -0.0    25.704559    0.0    -0.0    21.337854    0.0    -0.0    42.675709    0.0    -0.0    21.337854    0.0    -0.0    16.838827    0.0    -0.0    33.677662    0.0    -0.0    16.838827    0.0    -0.0    29.512812    -23.887659    0.619494    -0.2    23.46909    1.0    -5.0    3.562314    0.0    5.042175    -6.262647    -6.265358    -17.009146    11.565704    -9.227856    0.2    6.860895    -1.0    5.0    -12.22231    0.0    1.624656    -8.14876    1.787676
0.582235    0.775237    1.183014    -4.786149    -1.762035    52.703094    6.589716    -0.380459    10.709286    0.980619    8.333404    3.490455    5.353681    11.116415    16.873045    -25.630604    -7.422085    12.085216    5.168602    1.94603    -8.081177    -25.511738    15.589931    -33.856194    0.0    -48.499184    -10.0    -14.820178    -7.789457    0.0    -5.102085    -10.734881    -21.767338    0.0    0.0    0.0    0.0    0.0    0.0    -89.999992    0.0    0.0    -110.0    0.0    0.0    -80.0    0.0    0.0    -45.450001    0.0    0.0    -73.700012    0.0    0.0    -53.599995    0.0    0.0    -0.899995    0.0    0.0    -37.39999    0.0    0.0    -27.200001    0.0    0.0    45.000004    0.0    -0.0    0.0    0.0    0.0    0.0    0.0    0.0    -9.125658    1.9264    11.053487    2.717283    41.124969    89.70575    0.0    -19.048683    59.003246    -70.0    20.0    0.0    0.852762    23.824396    -41.868378    0.0    0.0    -28.381699    0.0    0.0    -56.763397    29.499302    0.0    -0.0    58.998604    0.0    -0.0    29.499302    0.0    -0.0    21.34783    0.0    -0.0    42.69566    0.0    -0.0    21.34783    0.0    -0.0    13.196362    0.0    -0.0    26.392719    0.0    -0.0    13.196362    0.0    -0.0    4.797875    0.0    -0.0    9.595749    0.0    -0.0    4.797875    0.0    -0.0    29.516098    -23.937254    0.572492    -0.2    23.540253    1.0    -5.0    3.428768    0.0    5.005954    -6.064762    -6.197844    -17.033924    11.560596    -9.201987    0.2    6.812566    -1.0    5.0    -12.110955    0.0    1.118042    -7.434786    2.231047
0.582422    0.775238    1.182975    -4.806392    -1.746107    52.650379    6.596553    -0.512154    10.703817    1.006961    8.462663    3.483074    5.233531    10.978665    16.916227    -25.495592    -7.292891    12.186618    5.199973    1.928316    -8.009669    -25.66749    15.292273    -33.840847    0.0    -48.310871    -10.0    -14.799151    -7.929083    0.0    -5.213314    -10.655868    -21.918392    0.0    0.0    0.0    0.0    0.0    0.0    -89.999992    0.0    0.0    -110.0    0.0    0.0    -80.0    0.0    0.0    -45.450001    0.0    0.0    -73.700012    0.0    0.0    -53.599995    0.0    0.0    -0.899995    0.0    0.0    -37.39999    0.0    0.0    -27.200001    0.0    0.0    45.000004    0.0    -0.0    0.0    0.0    0.0    0.0    0.0    0.0    -9.069608    1.933062    11.094102    2.337713    41.092331    89.921181    0.0    -19.049231    59.068588    -70.0    20.0    0.0    0.699394    22.906269    -39.941162    0.0    0.0    -27.31789    0.0    0.0    -54.63578    30.371069    0.0    -0.0    60.742142    0.0    -0.0    30.371069    0.0    -0.0    26.323511    0.0    -0.0    52.647011    0.0    -0.0    26.323511    0.0    -0.0    22.275951    0.0    -0.0    44.551891    0.0    -0.0    22.275951    0.0    -0.0    18.105734    0.0    -0.0    36.211468    0.0    -0.0    18.105734    0.0    -0.0    29.526596    -23.990946    0.632283    -0.2    23.659403    1.0    -5.0    3.278564    0.0    5.053423    -6.151172    -6.261324    -17.06521    11.55896    -9.137582    0.2    6.728174    -1.0    5.0    -12.019334    0.0    1.089737    -7.38883    2.251977
0.582666    0.775298    1.182921    -4.789107    -1.76097    52.621338    6.635458    -0.604633    10.654915    0.980217    8.591143    3.465814    5.190004    10.827938    17.005699    -25.383284    -7.033144    12.356285    5.215624    1.899852    -7.952427    -25.560188    15.408487    -33.797283    0.0    -48.382683    -10.0    -14.791463    -7.845634    0.0    -5.213314    -10.655868    -21.918392    0.0    0.0    0.0    0.0    0.0    0.0    -89.999992    0.0    0.0    -110.0    0.0    0.0    -80.0    0.0    0.0    -45.450001    0.0    0.0    -73.700012    0.0    0.0    -53.599995    0.0    0.0    -0.899995    0.0    0.0    -37.39999    0.0    0.0    -27.200001    0.0    0.0    45.000004    0.0    -0.0    0.0    0.0    0.0    0.0    0.0    0.0    -9.026344    1.991675    11.174605    2.502154    41.167473    89.83284    0.0    -19.037611    59.132034    -70.0    20.0    0.0    0.702219    23.017639    -40.178875    0.0    0.0    -27.46384    0.0    0.0    -54.927692    30.001768    0.0    -0.0    60.003536    0.0    -0.0    30.001768    0.0    -0.0    23.255363    0.0    -0.0    46.510712    0.0    -0.0    23.255363    0.0    -0.0    16.508947    0.0    -0.0    33.017895    0.0    -0.0    16.508947    0.0    -0.0    9.558104    0.0    -0.0    19.116203    0.0    -0.0    9.558104    0.0    -0.0    29.500404    -23.953978    0.624756    -0.2    23.6891    1.0    -5.0    3.247506    0.0    5.024573    -6.228795    -6.241543    -17.059341    11.569792    -8.858838    0.2    6.704433    -1.0    5.0    -12.04285    0.0    1.133021    -7.432287    2.203614
0.582772    0.775342    1.182785    -4.74316    -1.750842    52.557182    6.591589    -0.667868    10.638325    0.982184    8.684415    3.458189    5.166632    10.695987    17.084808    -25.28586    -6.774563    12.511127    5.260339    1.874324    -7.904667    -25.494574    15.44477    -33.704247    0.0    -48.538166    -10.0    -14.775799    -7.667524    0.0    -5.213314    -10.655868    -21.918392    0.0    0.0    0.0    0.0    0.0    0.0    -89.999992    0.0    0.0    -110.0    0.0    0.0    -80.0    0.0    0.0    -45.450001    0.0    0.0    -73.700012    0.0    0.0    -53.599995    0.0    0.0    -0.899995    0.0    0.0    -37.39999    0.0    0.0    -27.200001    0.0    0.0    45.000004    0.0    -0.0    0.0    0.0    0.0    0.0    0.0    0.0    -8.98498    1.9992    11.26024    2.592401    41.296246    89.715363    0.0    -19.041559    59.193954    -70.0    20.0    0.0    0.493901    22.911861    -40.032284    0.0    0.0    -27.354076    0.0    0.0    -54.70816    29.813522    0.0    -0.0    59.627045    0.0    -0.0    29.813522    0.0    -0.0    25.402191    0.0    -0.0    50.804375    0.0    -0.0    25.402191    0.0    -0.0    20.990864    0.0    -0.0    41.981735    0.0    -0.0    20.990864    0.0    -0.0    16.445862    0.0    -0.0    32.89172    0.0    -0.0    16.445862    0.0    -0.0    29.453104    -23.914457    0.590625    -0.2    23.719297    1.0    -5.0    3.165649    0.0    5.072147    -6.27802    -6.299796    -17.112261    11.5588    -8.873818    0.2    6.730671    -1.0    5.0    -12.001193    0.0    1.114895    -7.41202    2.22261
